<svg width="1428" height="470" viewBox="0 0 1428 470" fill="none" xmlns="http://www.w3.org/2000/svg">
<rect width="1428" height="470" fill="#F5F5F5"/>
<path d="M0 0H1402V470H0V0Z" fill="black"/>
<path d="M0 0H1402V470H0V0Z" fill="black"/>
<path d="M687.202 124.431L687.213 124.462L687.222 124.494C687.491 125.481 687.713 126.464 687.827 127.243C687.883 127.627 687.919 128.001 687.91 128.316C687.905 128.471 687.889 128.658 687.837 128.843C687.797 128.985 687.693 129.284 687.406 129.506C687.137 129.724 686.832 129.772 686.691 129.787C686.498 129.809 686.299 129.801 686.119 129.783C685.756 129.747 685.317 129.657 684.849 129.538C683.904 129.297 682.705 128.902 681.472 128.437L681.462 128.434L681.452 128.43C678.992 127.443 672.522 125.631 667.016 124.203C658.375 122.098 654.243 121.692 634.526 121.286C630.805 121.227 627.499 121.193 624.753 121.189C631.396 122.495 638.979 124.124 641.655 124.907C642.736 125.154 644.665 125.684 646.767 126.261C648.222 126.66 649.76 127.083 651.156 127.449C654.675 128.373 659.67 130.01 662.343 131.04L672.896 135.105L672.897 135.105L672.904 135.107C682.225 138.779 698.318 146.423 704.709 150.218L704.716 150.222C712.522 154.945 717.288 157.877 720.104 159.732C721.506 160.655 722.458 161.333 723.067 161.845C723.369 162.099 723.622 162.342 723.808 162.579C723.977 162.797 724.195 163.141 724.195 163.577C724.195 164.667 723.337 165.395 722.342 165.483C722.328 165.504 722.312 165.531 722.295 165.562C722.184 165.77 722.084 166.112 722.084 166.524C722.084 166.969 722.17 167.34 722.267 167.565C722.275 167.584 722.283 167.601 722.29 167.615C722.339 167.631 722.379 167.647 722.409 167.66C722.511 167.704 722.601 167.756 722.673 167.802C722.817 167.894 722.966 168.012 723.11 168.134C723.402 168.381 723.757 168.723 724.148 169.123C724.936 169.926 725.931 171.027 726.973 172.235C728.922 174.494 731.086 177.188 732.42 179.105C732.455 179.085 732.493 179.062 732.534 179.036C733.033 178.719 733.735 178.106 734.567 177.23C736.215 175.496 738.203 172.912 739.858 170.174L739.861 170.17C740.864 168.527 741.224 167.27 741.142 166.235C741.062 165.23 740.551 164.254 739.403 163.194L739.395 163.187L739.387 163.18C739.235 163.034 739.01 162.74 738.787 162.44C738.539 162.106 738.223 161.666 737.864 161.154C737.146 160.13 736.245 158.803 735.344 157.425C734.435 156.086 733.758 154.948 733.327 154.03C733.111 153.57 732.945 153.142 732.846 152.754C732.751 152.386 732.691 151.958 732.789 151.546C732.903 151.064 733.23 150.649 733.754 150.474C734.19 150.329 734.64 150.393 734.995 150.488C735.723 150.684 736.634 151.174 737.681 151.872L737.681 151.872L737.69 151.878C738.49 152.425 739.089 152.795 739.529 153.013C739.492 152.768 739.427 152.453 739.328 152.056C739.187 151.608 738.645 150.83 737.659 149.88C736.7 148.957 735.441 147.985 734.075 147.157L734.074 147.157L734.063 147.15C727.865 143.276 723.305 137.146 722.519 130.878C722.321 129.301 721.957 128.116 721.301 126.988C720.635 125.843 719.636 124.702 718.081 123.254L718.073 123.246L718.065 123.239C713.279 118.579 708.003 111.305 703.532 103.642C699.063 95.9795 695.345 87.8342 693.73 81.4056L693.728 81.3967C692.299 75.4799 691.401 71.9702 690.776 70.1298C687.503 80.9095 686.202 91.2268 686.202 105.551C686.202 109.856 686.307 114.182 686.49 117.655C686.582 119.392 686.693 120.907 686.819 122.094C686.949 123.319 687.086 124.097 687.202 124.431ZM740.052 153.213C740.053 153.213 740.051 153.213 740.048 153.213L740.052 153.213ZM690.198 68.7923C690.198 68.7937 690.205 68.8038 690.22 68.8189C690.205 68.7985 690.198 68.7909 690.198 68.7923Z" fill="#D9D9D9" stroke="#3E92CC" stroke-width="2"/>
<path d="M766.002 230.308L766.376 227.532L764.92 228.849L764.913 228.855C762.798 230.735 760.385 232.407 758.124 233.614C755.902 234.799 753.688 235.611 752.006 235.611C750.715 235.611 749.821 234.747 749.077 233.425C748.334 232.104 747.569 230.031 746.622 226.991C744.114 219.448 738.133 206.407 732.037 195.781L732.036 195.78C728.398 189.424 722.045 181.436 715.081 174.071C708.115 166.706 700.609 160.041 694.694 156.294C684.402 149.822 680.555 147.82 669.437 143.578L669.434 143.577C656.956 138.771 645.522 136.353 631.61 135.629C642.227 138.032 658.704 143.189 665.662 146.303C692.053 157.985 712.487 177.767 725.463 203.986L725.467 203.995C726.529 206.192 727.513 208.369 728.234 210.105C728.594 210.972 728.893 211.739 729.104 212.349C729.209 212.653 729.296 212.93 729.358 213.167C729.414 213.38 729.472 213.641 729.472 213.881C729.472 214.186 729.568 214.706 729.767 215.329C729.961 215.935 730.225 216.556 730.503 217.046L730.503 217.046L730.509 217.057C731.538 218.93 732.564 222.418 733.54 227.051C734.524 231.723 735.478 237.672 736.324 244.55L736.324 244.552C736.745 248.048 737.192 251.237 737.56 253.574C737.743 254.743 737.906 255.693 738.035 256.357C738.052 256.443 738.067 256.523 738.083 256.598C738.497 256.461 739.055 256.235 739.736 255.927C741.24 255.247 743.228 254.22 745.332 253.046C749.568 250.683 754.124 247.807 756.091 246.059L756.099 246.052L756.107 246.045C762.424 240.66 765.202 236.088 766.002 230.308ZM737.54 256.737C737.54 256.737 737.542 256.737 737.544 256.737L737.54 256.737Z" fill="#D9D9D9" stroke="#3E92CC" stroke-width="2"/>
<g filter="url(#filter0_d_0_1)">
<path d="M621.879 145.692C611.431 154.025 592.118 162.765 577.343 165.915C575.654 166.321 574.388 166.931 574.388 167.338C574.388 167.744 576.709 169.065 579.453 170.386C589.479 175.162 589.479 175.061 582.303 181.361C578.82 184.308 573.965 187.865 571.538 189.085C569.005 190.406 567 191.727 567 192.133C567 192.641 569.005 192.946 571.538 192.946C578.82 192.946 579.242 193.658 577.554 201.787C574.81 214.897 575.971 236.136 580.298 250.363C583.464 260.728 584.203 262.761 587.791 270.179C596.339 287.658 612.064 303.308 634.333 316.722C639.926 319.974 658.184 328.815 665.677 331.762C669.16 333.185 672.959 334.709 674.12 335.217C678.025 336.843 686.785 339.384 696.283 341.823C724.461 348.733 745.147 361.842 753.801 378.305L755.384 381.252L755.7 376.577C756.123 369.667 750.529 350.664 745.358 341.823C734.487 323.124 725.306 315.096 689.529 293.044C688.579 292.434 687.629 291.825 687.312 291.52C686.996 291.215 684.885 289.69 682.563 288.065C680.241 286.439 677.92 284.609 677.286 284C676.759 283.288 673.17 280.544 669.371 277.801C652.063 265.098 634.438 244.265 627.895 229.022C622.09 215.303 622.935 197.926 630.006 187.357C638.343 174.858 649.847 169.776 671.798 168.862L685.307 168.252L682.985 165.915C676.442 159.208 655.862 148.537 638.976 143.253C633.594 141.526 629.161 140.103 628.95 140.204C628.845 140.204 625.679 142.745 621.879 145.692Z" fill="#404040"/>
<path d="M671.757 167.863L683.006 167.355L682.276 166.62L682.27 166.613C679.119 163.384 672.465 159.101 664.401 154.939C656.369 150.794 647.057 146.83 638.678 144.207L638.671 144.205C635.977 143.341 633.53 142.555 631.729 141.998C630.827 141.719 630.097 141.501 629.583 141.359C629.426 141.316 629.295 141.281 629.189 141.255C629.119 141.307 629.037 141.369 628.943 141.441C628.578 141.722 628.057 142.128 627.417 142.63C627.155 142.835 626.874 143.056 626.576 143.29C625.42 144.198 624.008 145.306 622.497 146.478C611.913 154.917 592.465 163.71 577.565 166.89C576.935 167.042 576.388 167.22 575.967 167.393C576.097 167.476 576.241 167.564 576.401 167.658C577.29 168.184 578.529 168.831 579.887 169.485C579.887 169.485 579.887 169.485 579.887 169.485L580.224 169.646C582.546 170.751 584.361 171.616 585.643 172.367C586.318 172.763 586.893 173.154 587.334 173.564C587.776 173.975 588.142 174.459 588.296 175.049C588.619 176.278 587.896 177.372 587.04 178.328C586.172 179.296 584.84 180.465 583.165 181.936L582.963 182.113L582.956 182.119L582.949 182.125C579.459 185.078 574.535 188.696 571.994 189.975C570.751 190.623 569.652 191.264 568.875 191.784C568.867 191.789 568.859 191.794 568.851 191.799C569.562 191.893 570.492 191.946 571.538 191.946C573.351 191.946 574.831 191.988 575.971 192.201C577.119 192.416 578.118 192.838 578.739 193.759C579.335 194.643 579.436 195.779 579.348 197.046C579.258 198.333 578.954 199.965 578.533 201.991L578.533 201.992C575.826 214.922 576.972 235.99 581.254 250.071C584.41 260.404 585.132 262.386 588.69 269.741C597.128 286.994 612.686 302.514 634.842 315.861C640.397 319.09 658.598 327.903 666.043 330.831L666.043 330.831L666.055 330.836C667.187 331.299 668.358 331.774 669.462 332.222C671.729 333.142 673.715 333.949 674.513 334.297C678.344 335.891 687.026 338.413 696.526 340.853C724.756 347.777 745.737 360.947 754.621 377.717L754.702 376.516C754.702 376.515 754.702 376.514 754.702 376.513C754.8 374.913 754.549 372.529 754.007 369.66C753.469 366.809 752.657 363.543 751.668 360.208C749.686 353.521 747.022 346.648 744.495 342.327L744.493 342.325C739.098 333.045 734.15 326.456 726.125 319.444C718.069 312.404 706.894 304.922 689.004 293.895L688.996 293.89L688.988 293.886L688.982 293.882C688.512 293.58 688.029 293.27 687.624 292.997C687.241 292.739 686.85 292.463 686.619 292.24C686.619 292.24 686.619 292.24 686.619 292.24C686.617 292.238 686.607 292.229 686.586 292.212C686.562 292.191 686.529 292.164 686.488 292.131C686.405 292.065 686.295 291.98 686.159 291.877C685.888 291.672 685.528 291.406 685.102 291.097C684.251 290.479 683.147 289.695 681.99 288.884C679.663 287.254 677.286 285.388 676.593 284.72L676.533 284.662L676.483 284.595C676.484 284.596 676.479 284.59 676.468 284.577C676.458 284.565 676.443 284.548 676.423 284.527C676.383 284.485 676.33 284.431 676.261 284.366C676.123 284.235 675.94 284.072 675.713 283.878C675.259 283.492 674.655 283.007 673.942 282.452C672.516 281.344 670.68 279.979 668.786 278.611L668.779 278.607C651.366 265.827 633.606 244.862 626.976 229.417L626.974 229.412C621.066 215.447 621.88 197.704 629.175 186.801C633.437 180.411 638.539 175.882 645.392 172.851C652.218 169.831 660.723 168.322 671.756 167.863C671.756 167.863 671.756 167.863 671.757 167.863ZM567.721 191.543C567.721 191.543 567.722 191.543 567.724 191.544C567.722 191.543 567.721 191.543 567.721 191.543Z" stroke="#3E92CC" stroke-width="2"/>
</g>
<path d="M746.845 154.779L746.357 154.49L746.626 155.343C747.357 157.537 749.004 159.308 752.948 161.707L752.956 161.712L752.964 161.716C754.825 162.894 756.246 163.932 757.157 164.837C757.611 165.288 757.989 165.754 758.216 166.236C758.448 166.727 758.558 167.319 758.319 167.91C758.275 168.026 758.198 168.318 758.1 168.814C758.005 169.295 757.902 169.907 757.798 170.609C757.59 172.012 757.381 173.746 757.224 175.456C757.063 177.262 756.82 178.91 756.544 180.123C756.407 180.723 756.252 181.258 756.078 181.663C755.994 181.86 755.882 182.08 755.731 182.267C755.605 182.423 755.281 182.768 754.751 182.768C754.453 182.768 754.211 182.655 754.086 182.59C753.937 182.512 753.794 182.413 753.665 182.315C753.406 182.117 753.119 181.852 752.827 181.557C752.238 180.963 751.552 180.169 750.901 179.334L750.891 179.321L750.881 179.307C749.852 177.891 748.683 177.035 747.887 176.753C747.643 176.667 747.495 176.655 747.421 176.657C747.417 176.687 747.413 176.73 747.413 176.789C747.413 177.184 747.276 177.564 747.133 177.867C746.982 178.189 746.776 178.523 746.544 178.852C746.078 179.511 745.454 180.219 744.785 180.862L744.771 180.876L744.756 180.89C743.428 182.069 741.354 184.266 740.223 185.652L740.211 185.666L740.199 185.68L738.461 187.658L740.406 189.843L740.415 189.853L740.423 189.863C741.138 190.71 741.77 191.583 742.242 192.317C742.477 192.684 742.678 193.025 742.831 193.317C742.968 193.579 743.114 193.89 743.171 194.166L743.191 194.264C743.206 194.3 743.23 194.353 743.267 194.424C743.364 194.611 743.516 194.866 743.721 195.171C744.129 195.778 744.707 196.528 745.362 197.257L745.369 197.264L745.375 197.272C746.407 198.463 746.95 198.92 747.854 199.156C748.887 199.426 750.429 199.419 753.54 199.264L753.546 199.264C759.602 199.002 766.856 200.756 773.307 203.604C779.743 206.446 785.553 210.452 788.604 214.833L788.606 214.836C790.304 217.288 791.35 220.531 791.693 223.667C792.035 226.786 791.699 229.964 790.456 232.245L790.454 232.248C790.182 232.743 790.009 233.133 789.911 233.432C789.879 233.529 789.858 233.609 789.843 233.676C790.228 233.63 790.854 233.435 791.725 233.025C792.647 232.591 793.752 231.962 794.986 231.167C799.933 227.978 806.661 222.304 811.392 216.598C813.407 214.146 814.514 212.511 814.883 211.543C814.935 211.405 814.964 211.303 814.98 211.23C814.933 211.225 814.874 211.222 814.801 211.222H814.777L814.753 211.221C813.312 211.152 811.788 210.182 810.045 208.568C808.26 206.914 806.058 204.401 803.255 200.887L803.251 200.882C802.09 199.408 801.195 198.298 800.456 197.463C799.713 196.623 799.166 196.107 798.706 195.789C798.27 195.488 797.917 195.367 797.536 195.327C797.119 195.284 796.622 195.331 795.868 195.456C792.968 195.967 789.12 194.966 785.225 193.085C781.287 191.182 777.136 188.3 773.579 184.823C771.584 182.902 770.308 181.53 769.564 180.111C768.791 178.638 768.631 177.197 768.631 175.264C768.631 173.102 768.049 171.291 766.517 169.387C764.948 167.436 762.371 165.373 758.329 162.795L758.326 162.793C755.769 161.152 752.787 158.999 751.599 158.063C750.477 157.178 748.299 155.679 746.845 154.779ZM747.438 176.592C747.438 176.592 747.435 176.596 747.431 176.607C747.437 176.599 747.439 176.593 747.438 176.592ZM743.173 194.213C743.172 194.213 743.173 194.216 743.176 194.223C743.174 194.217 743.173 194.213 743.173 194.213ZM815.14 211.261C815.14 211.261 815.138 211.26 815.131 211.257C815.137 211.26 815.14 211.261 815.14 211.261Z" fill="#404040" stroke="#3E92CC" stroke-width="2"/>
<path d="M678.732 195.798C677.512 196.323 676.427 196.817 675.536 197.248C676.157 197.303 676.852 197.367 677.605 197.438C680.288 197.693 683.777 198.049 687.423 198.456L687.424 198.456C695.541 199.37 702.65 200.029 707.724 200.383C710.264 200.561 712.28 200.661 713.654 200.679C713.863 200.682 714.054 200.683 714.228 200.682C714.158 200.596 714.084 200.508 714.005 200.42L713.975 200.386L713.949 200.351C713.414 199.63 710.453 195.557 707.491 191.176C704.839 187.398 703.051 185.221 701.835 184.289C701.212 183.811 700.969 183.841 700.959 183.843L700.959 183.843C700.957 183.844 700.953 183.845 700.943 183.85C700.932 183.857 700.908 183.873 700.872 183.91C700.799 183.988 700.697 184.133 700.583 184.388C700.412 184.816 700.04 185.173 699.728 185.438C699.364 185.747 698.886 186.085 698.322 186.445C697.19 187.168 695.627 188.033 693.728 188.998C689.926 190.931 684.706 193.303 678.732 195.798ZM714.821 201.604C714.821 201.604 714.82 201.602 714.819 201.598C714.82 201.602 714.821 201.604 714.821 201.604Z" fill="#404040" stroke="#3E92CC" stroke-width="2"/>
<mask id="path-8-outside-1_0_1" maskUnits="userSpaceOnUse" x="70" y="55" width="1274" height="356" fill="black">
<rect fill="white" x="70" y="55" width="1274" height="356"/>
<path d="M126.109 81.8V383.8C126.109 391.8 129.709 397.8 136.909 400.6L137.309 401V403H74.1094V401L75.3094 400.2C82.1094 396.2 86.1094 391.8 86.1094 383.8V81.8C86.1094 73.8 82.1094 69.4 75.3094 65.4L74.1094 65V63H137.309V65H136.909C129.309 67.8 126.109 73.8 126.109 81.8ZM181.297 201.8V383C181.297 391.4 184.497 398.2 192.097 400.6L192.497 401V403H129.297V401L130.497 400.2C137.697 397.4 141.297 391.8 141.297 384.2V189C141.297 181.4 137.697 176.6 130.097 175.4L129.297 175V173L179.297 163H181.297V181.8C188.497 168.2 203.697 159 219.297 159C234.097 159 245.297 167 256.097 179.8L236.097 239.8H234.097C229.697 201 217.697 175 201.697 175C190.497 175 181.297 185.8 181.297 201.8ZM272.953 347.4V118.6C272.953 83 300.153 59 340.553 59C380.953 59 407.353 83 407.353 118.6V347.4C407.353 383 380.953 407 340.553 407C300.153 407 272.953 383 272.953 347.4ZM312.953 93.4V372.2C312.953 388.2 324.153 399 340.953 399C357.353 399 367.353 388.2 367.353 372.2V93.4C367.353 77.8 356.953 67 340.553 67C324.153 67 312.953 77.8 312.953 93.4ZM459.25 201.8V384.2C459.25 391.8 462.85 397.8 470.05 400.6L470.45 401V403H407.25V401L408.45 400.2C415.65 397.4 419.25 391.8 419.25 384.2V189C419.25 181.4 415.65 176.6 408.05 175.4L407.25 175V173L457.25 163H459.25V181.8C467.65 168.2 484.85 159 503.25 159C532.45 159 552.05 183 552.05 218.6V384.2C552.05 391.8 555.65 397.4 562.85 400.2L564.05 401V403H500.85V401L501.65 400.6C508.85 399.4 512.05 391.8 512.05 384.2V201.8C512.05 185.8 502.45 175 486.85 175C470.85 175 459.25 185.8 459.25 201.8ZM988.334 329.8L1012.73 208.6C1015.93 190.6 1011.53 176.6 997.934 165.4L997.134 165V163H1043.13V165L1041.93 167.8C1032.73 177.4 1026.73 189.4 1023.93 203.8L983.934 403H962.734L925.134 235.4L887.534 403H866.334L821.934 182.2C820.334 174.6 815.934 169 808.734 166.2L806.734 165V163H870.734V165L869.934 165.4C863.134 168.6 860.334 174.2 861.934 181.8L892.334 329L929.134 163H950.734L988.334 329.8ZM1042.97 347.4V118.6C1042.97 83 1070.17 59 1110.57 59C1150.97 59 1177.37 83 1177.37 118.6V347.4C1177.37 383 1150.97 407 1110.57 407C1070.17 407 1042.97 383 1042.97 347.4ZM1082.97 93.4V372.2C1082.97 388.2 1094.17 399 1110.97 399C1127.37 399 1137.37 388.2 1137.37 372.2V93.4C1137.37 77.8 1126.97 67 1110.57 67C1094.17 67 1082.97 77.8 1082.97 93.4ZM1229.27 63V384.2C1229.27 391.8 1232.87 397.8 1240.07 400.6L1240.47 401V403H1177.27V401L1178.47 400.2C1185.67 397.4 1189.27 391.8 1189.27 384.2V89C1189.27 81.4 1185.67 76.6 1178.07 75.4L1177.27 75V73L1227.27 63H1229.27ZM1232.45 171V169L1244.45 165V118.6C1244.45 83 1263.65 59 1292.05 59C1320.45 59 1338.85 83 1338.85 118.6V148.6H1330.85V118.6C1330.85 96.2 1321.65 81 1307.25 81C1293.65 81 1284.45 95.4 1284.45 116.6V163H1339.25V171H1284.45V384.2C1284.45 391.8 1288.05 397.8 1295.25 400.6L1295.65 401V403H1232.45V401L1233.65 400.2C1240.85 397.4 1244.45 391.8 1244.45 384.2V171H1232.45Z"/>
</mask>
<path d="M126.109 81.8V383.8C126.109 391.8 129.709 397.8 136.909 400.6L137.309 401V403H74.1094V401L75.3094 400.2C82.1094 396.2 86.1094 391.8 86.1094 383.8V81.8C86.1094 73.8 82.1094 69.4 75.3094 65.4L74.1094 65V63H137.309V65H136.909C129.309 67.8 126.109 73.8 126.109 81.8ZM181.297 201.8V383C181.297 391.4 184.497 398.2 192.097 400.6L192.497 401V403H129.297V401L130.497 400.2C137.697 397.4 141.297 391.8 141.297 384.2V189C141.297 181.4 137.697 176.6 130.097 175.4L129.297 175V173L179.297 163H181.297V181.8C188.497 168.2 203.697 159 219.297 159C234.097 159 245.297 167 256.097 179.8L236.097 239.8H234.097C229.697 201 217.697 175 201.697 175C190.497 175 181.297 185.8 181.297 201.8ZM272.953 347.4V118.6C272.953 83 300.153 59 340.553 59C380.953 59 407.353 83 407.353 118.6V347.4C407.353 383 380.953 407 340.553 407C300.153 407 272.953 383 272.953 347.4ZM312.953 93.4V372.2C312.953 388.2 324.153 399 340.953 399C357.353 399 367.353 388.2 367.353 372.2V93.4C367.353 77.8 356.953 67 340.553 67C324.153 67 312.953 77.8 312.953 93.4ZM459.25 201.8V384.2C459.25 391.8 462.85 397.8 470.05 400.6L470.45 401V403H407.25V401L408.45 400.2C415.65 397.4 419.25 391.8 419.25 384.2V189C419.25 181.4 415.65 176.6 408.05 175.4L407.25 175V173L457.25 163H459.25V181.8C467.65 168.2 484.85 159 503.25 159C532.45 159 552.05 183 552.05 218.6V384.2C552.05 391.8 555.65 397.4 562.85 400.2L564.05 401V403H500.85V401L501.65 400.6C508.85 399.4 512.05 391.8 512.05 384.2V201.8C512.05 185.8 502.45 175 486.85 175C470.85 175 459.25 185.8 459.25 201.8ZM988.334 329.8L1012.73 208.6C1015.93 190.6 1011.53 176.6 997.934 165.4L997.134 165V163H1043.13V165L1041.93 167.8C1032.73 177.4 1026.73 189.4 1023.93 203.8L983.934 403H962.734L925.134 235.4L887.534 403H866.334L821.934 182.2C820.334 174.6 815.934 169 808.734 166.2L806.734 165V163H870.734V165L869.934 165.4C863.134 168.6 860.334 174.2 861.934 181.8L892.334 329L929.134 163H950.734L988.334 329.8ZM1042.97 347.4V118.6C1042.97 83 1070.17 59 1110.57 59C1150.97 59 1177.37 83 1177.37 118.6V347.4C1177.37 383 1150.97 407 1110.57 407C1070.17 407 1042.97 383 1042.97 347.4ZM1082.97 93.4V372.2C1082.97 388.2 1094.17 399 1110.97 399C1127.37 399 1137.37 388.2 1137.37 372.2V93.4C1137.37 77.8 1126.97 67 1110.57 67C1094.17 67 1082.97 77.8 1082.97 93.4ZM1229.27 63V384.2C1229.27 391.8 1232.87 397.8 1240.07 400.6L1240.47 401V403H1177.27V401L1178.47 400.2C1185.67 397.4 1189.27 391.8 1189.27 384.2V89C1189.27 81.4 1185.67 76.6 1178.07 75.4L1177.27 75V73L1227.27 63H1229.27ZM1232.45 171V169L1244.45 165V118.6C1244.45 83 1263.65 59 1292.05 59C1320.45 59 1338.85 83 1338.85 118.6V148.6H1330.85V118.6C1330.85 96.2 1321.65 81 1307.25 81C1293.65 81 1284.45 95.4 1284.45 116.6V163H1339.25V171H1284.45V384.2C1284.45 391.8 1288.05 397.8 1295.25 400.6L1295.65 401V403H1232.45V401L1233.65 400.2C1240.85 397.4 1244.45 391.8 1244.45 384.2V171H1232.45Z" fill="#F01130"/>
<path d="M136.909 400.6L139.738 397.772L139.143 397.177L138.359 396.872L136.909 400.6ZM137.309 401H141.309V399.343L140.138 398.172L137.309 401ZM137.309 403V407H141.309V403H137.309ZM74.1094 403H70.1094V407H74.1094V403ZM74.1094 401L71.8906 397.672L70.1094 398.859V401H74.1094ZM75.3094 400.2L73.2813 396.752L73.1843 396.809L73.0906 396.872L75.3094 400.2ZM75.3094 65.4L77.3375 61.9522L76.9741 61.7385L76.5743 61.6052L75.3094 65.4ZM74.1094 65H70.1094V67.883L72.8445 68.7947L74.1094 65ZM74.1094 63V59H70.1094V63H74.1094ZM137.309 63H141.309V59H137.309V63ZM137.309 65V69H141.309V65H137.309ZM136.909 65V61H136.196L135.527 61.2466L136.909 65ZM122.109 81.8V383.8H130.109V81.8H122.109ZM122.109 383.8C122.109 388.397 123.146 392.674 125.427 396.286C127.725 399.924 131.136 402.647 135.46 404.328L138.359 396.872C135.483 395.753 133.493 394.076 132.191 392.014C130.872 389.926 130.109 387.203 130.109 383.8H122.109ZM134.081 403.428L134.481 403.828L140.138 398.172L139.738 397.772L134.081 403.428ZM133.309 401V403H141.309V401H133.309ZM137.309 399H74.1094V407H137.309V399ZM78.1094 403V401H70.1094V403H78.1094ZM76.3282 404.328L77.5282 403.528L73.0906 396.872L71.8906 397.672L76.3282 404.328ZM77.3375 403.648C80.9516 401.522 84.1991 399.079 86.5185 395.819C88.9043 392.466 90.1094 388.533 90.1094 383.8H82.1094C82.1094 387.067 81.3145 389.334 80.0002 391.181C78.6196 393.121 76.4671 394.878 73.2813 396.752L77.3375 403.648ZM90.1094 383.8V81.8H82.1094V383.8H90.1094ZM90.1094 81.8C90.1094 77.0667 88.9043 73.1339 86.5185 69.781C84.1991 66.5212 80.9516 64.0782 77.3375 61.9522L73.2813 68.8477C76.4671 70.7217 78.6196 72.4787 80.0002 74.419C81.3145 76.2661 82.1094 78.5332 82.1094 81.8H90.1094ZM76.5743 61.6052L75.3743 61.2052L72.8445 68.7947L74.0445 69.1947L76.5743 61.6052ZM78.1094 65V63H70.1094V65H78.1094ZM74.1094 67H137.309V59H74.1094V67ZM133.309 63V65H141.309V63H133.309ZM137.309 61H136.909V69H137.309V61ZM135.527 61.2466C130.982 62.921 127.522 65.6576 125.251 69.3569C123.011 73.004 122.109 77.2859 122.109 81.8H130.109C130.109 78.3141 130.808 75.5959 132.068 73.543C133.297 71.5423 135.237 69.8789 138.292 68.7534L135.527 61.2466ZM192.097 400.6L194.925 397.772L194.234 397.08L193.301 396.786L192.097 400.6ZM192.497 401H196.497V399.343L195.325 398.172L192.497 401ZM192.497 403V407H196.497V403H192.497ZM129.297 403H125.297V407H129.297V403ZM129.297 401L127.078 397.672L125.297 398.859V401H129.297ZM130.497 400.2L129.047 396.472L128.641 396.63L128.278 396.872L130.497 400.2ZM130.097 175.4L128.308 178.978L128.862 179.255L129.473 179.351L130.097 175.4ZM129.297 175H125.297V177.472L127.508 178.578L129.297 175ZM129.297 173L128.512 169.078L125.297 169.721V173H129.297ZM179.297 163V159H178.901L178.512 159.078L179.297 163ZM181.297 163H185.297V159H181.297V163ZM181.297 181.8H177.297L184.832 183.672L181.297 181.8ZM256.097 179.8L259.892 181.065L260.601 178.936L259.154 177.221L256.097 179.8ZM236.097 239.8V243.8H238.98L239.892 241.065L236.097 239.8ZM234.097 239.8L230.122 240.251L230.525 243.8H234.097V239.8ZM177.297 201.8V383H185.297V201.8H177.297ZM177.297 383C177.297 392.353 180.98 401.284 190.892 404.414L193.301 396.786C188.014 395.116 185.297 390.447 185.297 383H177.297ZM189.268 403.428L189.668 403.828L195.325 398.172L194.925 397.772L189.268 403.428ZM188.497 401V403H196.497V401H188.497ZM192.497 399H129.297V407H192.497V399ZM133.297 403V401H125.297V403H133.297ZM131.516 404.328L132.716 403.528L128.278 396.872L127.078 397.672L131.516 404.328ZM131.947 403.928C136.197 402.275 139.604 399.7 141.925 396.219C144.24 392.747 145.297 388.64 145.297 384.2H137.297C137.297 387.36 136.554 389.853 135.269 391.781C133.99 393.7 131.997 395.325 129.047 396.472L131.947 403.928ZM145.297 384.2V189H137.297V384.2H145.297ZM145.297 189C145.297 184.592 144.251 180.509 141.664 177.293C139.049 174.042 135.252 172.164 130.721 171.449L129.473 179.351C132.541 179.836 134.345 180.958 135.43 182.307C136.543 183.691 137.297 185.808 137.297 189H145.297ZM131.886 171.822L131.086 171.422L127.508 178.578L128.308 178.978L131.886 171.822ZM133.297 175V173H125.297V175H133.297ZM130.081 176.922L180.081 166.922L178.512 159.078L128.512 169.078L130.081 176.922ZM179.297 167H181.297V159H179.297V167ZM177.297 163V181.8H185.297V163H177.297ZM184.832 183.672C191.338 171.383 205.176 163 219.297 163V155C202.218 155 185.656 165.017 177.762 179.928L184.832 183.672ZM219.297 163C232.37 163 242.555 169.953 253.04 182.379L259.154 177.221C248.039 164.047 235.824 155 219.297 155V163ZM252.302 178.535L232.302 238.535L239.892 241.065L259.892 181.065L252.302 178.535ZM236.097 235.8H234.097V243.8H236.097V235.8ZM238.071 239.349C235.844 219.712 231.669 203.012 225.84 191.093C220.136 179.427 212.124 171 201.697 171V179C207.269 179 213.258 183.573 218.653 194.607C223.925 205.388 227.949 221.088 230.122 240.251L238.071 239.349ZM201.697 171C187.449 171 177.297 184.535 177.297 201.8H185.297C185.297 187.065 193.545 179 201.697 179V171ZM276.953 347.4V118.6H268.953V347.4H276.953ZM276.953 118.6C276.953 101.884 283.307 88.0992 294.249 78.4501C305.234 68.7627 321.132 63 340.553 63V55C319.574 55 301.672 61.2373 288.957 72.4499C276.199 83.7008 268.953 99.7163 268.953 118.6H276.953ZM340.553 63C359.971 63 375.655 68.7605 386.432 78.4276C397.171 88.0601 403.353 101.845 403.353 118.6H411.353C411.353 99.7549 404.335 83.7399 391.774 72.4724C379.251 61.2395 361.535 55 340.553 55V63ZM403.353 118.6V347.4H411.353V118.6H403.353ZM403.353 347.4C403.353 364.155 397.171 377.94 386.432 387.572C375.655 397.24 359.971 403 340.553 403V411C361.535 411 379.251 404.76 391.774 393.528C404.335 382.26 411.353 366.245 411.353 347.4H403.353ZM340.553 403C321.132 403 305.234 397.237 294.249 387.55C283.307 377.901 276.953 364.116 276.953 347.4H268.953C268.953 366.284 276.199 382.299 288.957 393.55C301.672 404.763 319.574 411 340.553 411V403ZM308.953 93.4V372.2H316.953V93.4H308.953ZM308.953 372.2C308.953 381.167 312.114 388.952 317.884 394.487C323.641 400.008 331.687 403 340.953 403V395C333.419 395 327.465 392.592 323.422 388.713C319.393 384.848 316.953 379.233 316.953 372.2H308.953ZM340.953 403C350.059 403 357.758 399.98 363.177 394.382C368.579 388.802 371.353 381.036 371.353 372.2H363.353C363.353 379.364 361.127 384.998 357.429 388.818C353.748 392.62 348.247 395 340.953 395V403ZM371.353 372.2V93.4H363.353V372.2H371.353ZM371.353 93.4C371.353 84.6942 368.435 77.0247 362.932 71.5216C357.425 66.0146 349.653 63 340.553 63V71C347.854 71 353.482 73.3854 357.275 77.1784C361.072 80.9753 363.353 86.5058 363.353 93.4H371.353ZM340.553 63C331.464 63 323.526 66.006 317.835 71.4627C312.131 76.9314 308.953 84.6065 308.953 93.4H316.953C316.953 86.5935 319.375 81.0686 323.371 77.2373C327.38 73.394 333.243 71 340.553 71V63ZM470.05 400.6L472.878 397.772L472.284 397.177L471.5 396.872L470.05 400.6ZM470.45 401H474.45V399.343L473.278 398.172L470.45 401ZM470.45 403V407H474.45V403H470.45ZM407.25 403H403.25V407H407.25V403ZM407.25 401L405.031 397.672L403.25 398.859V401H407.25ZM408.45 400.2L407 396.472L406.594 396.63L406.231 396.872L408.45 400.2ZM408.05 175.4L406.261 178.978L406.815 179.255L407.426 179.351L408.05 175.4ZM407.25 175H403.25V177.472L405.461 178.578L407.25 175ZM407.25 173L406.466 169.078L403.25 169.721V173H407.25ZM457.25 163V159H456.854L456.466 159.078L457.25 163ZM459.25 163H463.25V159H459.25V163ZM459.25 181.8H455.25V195.888L462.653 183.902L459.25 181.8ZM562.85 400.2L565.069 396.872L564.706 396.63L564.3 396.472L562.85 400.2ZM564.05 401H568.05V398.859L566.269 397.672L564.05 401ZM564.05 403V407H568.05V403H564.05ZM500.85 403H496.85V407H500.85V403ZM500.85 401L499.061 397.422L496.85 398.528V401H500.85ZM501.65 400.6L500.992 396.654L500.399 396.753L499.861 397.022L501.65 400.6ZM455.25 201.8V384.2H463.25V201.8H455.25ZM455.25 384.2C455.25 393.261 459.694 400.865 468.6 404.328L471.5 396.872C466.006 394.736 463.25 390.339 463.25 384.2H455.25ZM467.222 403.428L467.622 403.828L473.278 398.172L472.878 397.772L467.222 403.428ZM466.45 401V403H474.45V401H466.45ZM470.45 399H407.25V407H470.45V399ZM411.25 403V401H403.25V403H411.25ZM409.469 404.328L410.669 403.528L406.231 396.872L405.031 397.672L409.469 404.328ZM409.9 403.928C414.15 402.275 417.557 399.7 419.878 396.219C422.193 392.747 423.25 388.64 423.25 384.2H415.25C415.25 387.36 414.507 389.853 413.222 391.781C411.943 393.7 409.95 395.325 407 396.472L409.9 403.928ZM423.25 384.2V189H415.25V384.2H423.25ZM423.25 189C423.25 184.592 422.204 180.509 419.617 177.293C417.002 174.042 413.205 172.164 408.674 171.449L407.426 179.351C410.495 179.836 412.298 180.958 413.383 182.307C414.496 183.691 415.25 185.808 415.25 189H423.25ZM409.839 171.822L409.039 171.422L405.461 178.578L406.261 178.978L409.839 171.822ZM411.25 175V173H403.25V175H411.25ZM408.034 176.922L458.034 166.922L456.466 159.078L406.466 169.078L408.034 176.922ZM457.25 167H459.25V159H457.25V167ZM455.25 163V181.8H463.25V163H455.25ZM462.653 183.902C470.24 171.618 486.068 163 503.25 163V155C483.632 155 465.06 164.781 455.847 179.698L462.653 183.902ZM503.25 163C516.659 163 527.719 168.468 535.504 177.983C543.345 187.566 548.05 201.505 548.05 218.6H556.05C556.05 200.095 550.955 184.234 541.696 172.917C532.381 161.532 519.041 155 503.25 155V163ZM548.05 218.6V384.2H556.05V218.6H548.05ZM548.05 384.2C548.05 388.64 549.107 392.747 551.422 396.219C553.743 399.7 557.15 402.275 561.4 403.928L564.3 396.472C561.35 395.325 559.357 393.7 558.078 391.781C556.793 389.853 556.05 387.36 556.05 384.2H548.05ZM560.631 403.528L561.831 404.328L566.269 397.672L565.069 396.872L560.631 403.528ZM560.05 401V403H568.05V401H560.05ZM564.05 399H500.85V407H564.05V399ZM504.85 403V401H496.85V403H504.85ZM502.639 404.578L503.439 404.178L499.861 397.022L499.061 397.422L502.639 404.578ZM502.308 404.546C507.326 403.709 510.859 400.603 513.03 396.772C515.154 393.024 516.05 388.501 516.05 384.2H508.05C508.05 387.499 507.346 390.576 506.07 392.828C504.841 394.997 503.174 396.291 500.992 396.654L502.308 404.546ZM516.05 384.2V201.8H508.05V384.2H516.05ZM516.05 201.8C516.05 193.009 513.404 185.267 508.236 179.683C503.034 174.063 495.618 171 486.85 171V179C493.682 179 498.866 181.337 502.364 185.117C505.896 188.933 508.05 194.591 508.05 201.8H516.05ZM486.85 171C477.94 171 470.009 174.019 464.281 179.513C458.537 185.023 455.25 192.793 455.25 201.8H463.25C463.25 194.807 465.763 189.177 469.819 185.287C473.891 181.381 479.76 179 486.85 179V171ZM988.334 329.8L984.432 330.68L992.256 330.589L988.334 329.8ZM1012.73 208.6L1016.66 209.389L1016.66 209.345L1016.67 209.3L1012.73 208.6ZM997.934 165.4L1000.48 162.312L1000.13 162.025L999.723 161.822L997.934 165.4ZM997.134 165H993.134V167.472L995.346 168.578L997.134 165ZM997.134 163V159H993.134V163H997.134ZM1043.13 163H1047.13V159H1043.13V163ZM1043.13 165L1046.81 166.576L1047.13 165.821V165H1043.13ZM1041.93 167.8L1044.82 170.568L1045.32 170.043L1045.61 169.376L1041.93 167.8ZM1023.93 203.8L1027.86 204.587L1027.86 204.575L1027.86 204.563L1023.93 203.8ZM983.934 403V407H987.211L987.856 403.788L983.934 403ZM962.734 403L958.831 403.876L959.532 407H962.734V403ZM925.134 235.4L929.037 234.524H921.231L925.134 235.4ZM887.534 403V407H890.736L891.437 403.876L887.534 403ZM866.334 403L862.413 403.789L863.059 407H866.334V403ZM821.934 182.2L825.856 181.411L825.852 181.394L825.849 181.376L821.934 182.2ZM808.734 166.2L806.676 169.63L806.968 169.805L807.285 169.928L808.734 166.2ZM806.734 165H802.734V167.265L804.676 168.43L806.734 165ZM806.734 163V159H802.734V163H806.734ZM870.734 163H874.734V159H870.734V163ZM870.734 165L872.523 168.578L874.734 167.472V165H870.734ZM869.934 165.4L871.638 169.019L871.681 168.999L871.723 168.978L869.934 165.4ZM861.934 181.8L865.852 180.991L865.85 180.983L865.849 180.976L861.934 181.8ZM892.334 329L888.417 329.809L896.24 329.866L892.334 329ZM929.134 163V159H925.924L925.229 162.134L929.134 163ZM950.734 163L954.636 162.12L953.933 159H950.734V163ZM992.256 330.589L1016.66 209.389L1008.81 207.811L984.413 329.011L992.256 330.589ZM1016.67 209.3C1018.36 199.815 1018.09 191.111 1015.43 183.177C1012.75 175.217 1007.77 168.316 1000.48 162.312L995.392 168.488C1001.7 173.684 1005.71 179.383 1007.84 185.723C1009.98 192.088 1010.31 199.385 1008.8 207.9L1016.67 209.3ZM999.723 161.822L998.923 161.422L995.346 168.578L996.146 168.978L999.723 161.822ZM1001.13 165V163H993.134V165H1001.13ZM997.134 167H1043.13V159H997.134V167ZM1039.13 163V165H1047.13V163H1039.13ZM1039.46 163.424L1038.26 166.224L1045.61 169.376L1046.81 166.576L1039.46 163.424ZM1039.05 165.032C1029.26 175.243 1022.94 187.963 1020.01 203.037L1027.86 204.563C1030.53 190.837 1036.21 179.557 1044.82 170.568L1039.05 165.032ZM1020.01 203.012L980.013 402.212L987.856 403.788L1027.86 204.587L1020.01 203.012ZM983.934 399H962.734V407H983.934V399ZM966.637 402.124L929.037 234.524L921.231 236.276L958.831 403.876L966.637 402.124ZM921.231 234.524L883.631 402.124L891.437 403.876L929.037 236.276L921.231 234.524ZM887.534 399H866.334V407H887.534V399ZM870.256 402.211L825.856 181.411L818.013 182.989L862.413 403.789L870.256 402.211ZM825.849 181.376C823.996 172.575 818.754 165.805 810.184 162.472L807.285 169.928C813.115 172.195 816.673 176.625 818.02 183.024L825.849 181.376ZM810.792 162.77L808.792 161.57L804.676 168.43L806.676 169.63L810.792 162.77ZM810.734 165V163H802.734V165H810.734ZM806.734 167H870.734V159H806.734V167ZM866.734 163V165H874.734V163H866.734ZM868.946 161.422L868.146 161.822L871.723 168.978L872.523 168.578L868.946 161.422ZM868.231 161.781C864.2 163.678 861.028 166.451 859.194 170.187C857.363 173.917 857.082 178.166 858.02 182.624L865.849 180.976C865.187 177.834 865.506 175.483 866.375 173.713C867.241 171.949 868.869 170.322 871.638 169.019L868.231 161.781ZM858.017 182.609L888.417 329.809L896.252 328.191L865.852 180.991L858.017 182.609ZM896.24 329.866L933.04 163.866L925.229 162.134L888.429 328.134L896.24 329.866ZM929.134 167H950.734V159H929.134V167ZM946.832 163.88L984.432 330.68L992.236 328.92L954.636 162.12L946.832 163.88ZM1046.97 347.4V118.6H1038.97V347.4H1046.97ZM1046.97 118.6C1046.97 101.884 1053.32 88.0992 1064.26 78.4501C1075.25 68.7627 1091.15 63 1110.57 63V55C1089.59 55 1071.69 61.2373 1058.97 72.4499C1046.21 83.7008 1038.97 99.7163 1038.97 118.6H1046.97ZM1110.57 63C1129.99 63 1145.67 68.7605 1156.45 78.4276C1167.19 88.0601 1173.37 101.845 1173.37 118.6H1181.37C1181.37 99.7549 1174.35 83.7399 1161.79 72.4724C1149.27 61.2395 1131.55 55 1110.57 55V63ZM1173.37 118.6V347.4H1181.37V118.6H1173.37ZM1173.37 347.4C1173.37 364.155 1167.19 377.94 1156.45 387.572C1145.67 397.24 1129.99 403 1110.57 403V411C1131.55 411 1149.27 404.76 1161.79 393.528C1174.35 382.26 1181.37 366.245 1181.37 347.4H1173.37ZM1110.57 403C1091.15 403 1075.25 397.237 1064.26 387.55C1053.32 377.901 1046.97 364.116 1046.97 347.4H1038.97C1038.97 366.284 1046.21 382.299 1058.97 393.55C1071.69 404.763 1089.59 411 1110.57 411V403ZM1078.97 93.4V372.2H1086.97V93.4H1078.97ZM1078.97 372.2C1078.97 381.167 1082.13 388.952 1087.9 394.487C1093.66 400.008 1101.7 403 1110.97 403V395C1103.43 395 1097.48 392.592 1093.44 388.713C1089.41 384.848 1086.97 379.233 1086.97 372.2H1078.97ZM1110.97 403C1120.07 403 1127.77 399.98 1133.19 394.382C1138.59 388.802 1141.37 381.036 1141.37 372.2H1133.37C1133.37 379.364 1131.14 384.998 1127.44 388.818C1123.76 392.62 1118.26 395 1110.97 395V403ZM1141.37 372.2V93.4H1133.37V372.2H1141.37ZM1141.37 93.4C1141.37 84.6942 1138.45 77.0247 1132.95 71.5216C1127.44 66.0146 1119.67 63 1110.57 63V71C1117.87 71 1123.5 73.3854 1127.29 77.1784C1131.09 80.9753 1133.37 86.5058 1133.37 93.4H1141.37ZM1110.57 63C1101.48 63 1093.54 66.006 1087.85 71.4627C1082.15 76.9314 1078.97 84.6065 1078.97 93.4H1086.97C1086.97 86.5935 1089.39 81.0686 1093.39 77.2373C1097.4 73.394 1103.26 71 1110.57 71V63ZM1229.27 63H1233.27V59H1229.27V63ZM1240.07 400.6L1242.89 397.772L1242.3 397.177L1241.52 396.872L1240.07 400.6ZM1240.47 401H1244.47V399.343L1243.29 398.172L1240.47 401ZM1240.47 403V407H1244.47V403H1240.47ZM1177.27 403H1173.27V407H1177.27V403ZM1177.27 401L1175.05 397.672L1173.27 398.859V401H1177.27ZM1178.47 400.2L1177.02 396.472L1176.61 396.63L1176.25 396.872L1178.47 400.2ZM1178.07 75.4L1176.28 78.9777L1176.83 79.2545L1177.44 79.351L1178.07 75.4ZM1177.27 75H1173.27V77.4721L1175.48 78.5777L1177.27 75ZM1177.27 73L1176.48 69.0777L1173.27 69.7208V73H1177.27ZM1227.27 63V59H1226.87L1226.48 59.0777L1227.27 63ZM1225.27 63V384.2H1233.27V63H1225.27ZM1225.27 384.2C1225.27 393.261 1229.71 400.865 1238.62 404.328L1241.52 396.872C1236.02 394.736 1233.27 390.339 1233.27 384.2H1225.27ZM1237.24 403.428L1237.64 403.828L1243.29 398.172L1242.89 397.772L1237.24 403.428ZM1236.47 401V403H1244.47V401H1236.47ZM1240.47 399H1177.27V407H1240.47V399ZM1181.27 403V401H1173.27V403H1181.27ZM1179.48 404.328L1180.68 403.528L1176.25 396.872L1175.05 397.672L1179.48 404.328ZM1179.92 403.928C1184.17 402.275 1187.57 399.7 1189.89 396.219C1192.21 392.747 1193.27 388.64 1193.27 384.2H1185.27C1185.27 387.36 1184.52 389.853 1183.24 391.781C1181.96 393.7 1179.97 395.325 1177.02 396.472L1179.92 403.928ZM1193.27 384.2V89H1185.27V384.2H1193.27ZM1193.27 89C1193.27 84.5922 1192.22 80.509 1189.63 77.293C1187.02 74.0418 1183.22 72.1644 1178.69 71.4489L1177.44 79.351C1180.51 79.8355 1182.31 80.9581 1183.4 82.307C1184.51 83.691 1185.27 85.8078 1185.27 89H1193.27ZM1179.85 71.8223L1179.05 71.4223L1175.48 78.5777L1176.28 78.9777L1179.85 71.8223ZM1181.27 75V73H1173.27V75H1181.27ZM1178.05 76.9223L1228.05 66.9223L1226.48 59.0777L1176.48 69.0777L1178.05 76.9223ZM1227.27 67H1229.27V59H1227.27V67ZM1232.45 171H1228.45V175H1232.45V171ZM1232.45 169L1231.19 165.205L1228.45 166.117V169H1232.45ZM1244.45 165L1245.72 168.795L1248.45 167.883V165H1244.45ZM1338.85 148.6V152.6H1342.85V148.6H1338.85ZM1330.85 148.6H1326.85V152.6H1330.85V148.6ZM1284.45 163H1280.45V167H1284.45V163ZM1339.25 163H1343.25V159H1339.25V163ZM1339.25 171V175H1343.25V171H1339.25ZM1284.45 171V167H1280.45V171H1284.45ZM1295.25 400.6L1298.08 397.772L1297.49 397.177L1296.7 396.872L1295.25 400.6ZM1295.65 401H1299.65V399.343L1298.48 398.172L1295.65 401ZM1295.65 403V407H1299.65V403H1295.65ZM1232.45 403H1228.45V407H1232.45V403ZM1232.45 401L1230.23 397.672L1228.45 398.859V401H1232.45ZM1233.65 400.2L1232.2 396.472L1231.8 396.63L1231.43 396.872L1233.65 400.2ZM1244.45 171H1248.45V167H1244.45V171ZM1236.45 171V169H1228.45V171H1236.45ZM1233.72 172.795L1245.72 168.795L1243.19 161.205L1231.19 165.205L1233.72 172.795ZM1248.45 165V118.6H1240.45V165H1248.45ZM1248.45 118.6C1248.45 101.486 1253.07 87.5326 1260.73 77.947C1268.33 68.4342 1279.09 63 1292.05 63V55C1276.62 55 1263.58 61.5658 1254.48 72.953C1245.44 84.2674 1240.45 100.114 1240.45 118.6H1248.45ZM1292.05 63C1305.01 63 1315.55 68.4226 1322.95 77.9099C1330.42 87.4866 1334.85 101.448 1334.85 118.6H1342.85C1342.85 100.152 1338.09 84.3133 1329.26 72.9901C1320.36 61.5774 1307.5 55 1292.05 55V63ZM1334.85 118.6V148.6H1342.85V118.6H1334.85ZM1338.85 144.6H1330.85V152.6H1338.85V144.6ZM1334.85 148.6V118.6H1326.85V148.6H1334.85ZM1334.85 118.6C1334.85 106.92 1332.46 96.7164 1327.85 89.2893C1323.17 81.7498 1316.09 77 1307.25 77V85C1312.81 85 1317.54 87.8501 1321.06 93.5107C1324.64 99.2836 1326.85 107.88 1326.85 118.6H1334.85ZM1307.25 77C1298.83 77 1291.97 81.5291 1287.38 88.6938C1282.86 95.7674 1280.45 105.482 1280.45 116.6H1288.45C1288.45 106.518 1290.65 98.4326 1294.12 93.0062C1297.54 87.6708 1302.07 85 1307.25 85V77ZM1280.45 116.6V163H1288.45V116.6H1280.45ZM1284.45 167H1339.25V159H1284.45V167ZM1335.25 163V171H1343.25V163H1335.25ZM1339.25 167H1284.45V175H1339.25V167ZM1280.45 171V384.2H1288.45V171H1280.45ZM1280.45 384.2C1280.45 393.261 1284.9 400.865 1293.8 404.328L1296.7 396.872C1291.21 394.736 1288.45 390.339 1288.45 384.2H1280.45ZM1292.42 403.428L1292.82 403.828L1298.48 398.172L1298.08 397.772L1292.42 403.428ZM1291.65 401V403H1299.65V401H1291.65ZM1295.65 399H1232.45V407H1295.65V399ZM1236.45 403V401H1228.45V403H1236.45ZM1234.67 404.328L1235.87 403.528L1231.43 396.872L1230.23 397.672L1234.67 404.328ZM1235.1 403.928C1239.35 402.275 1242.76 399.7 1245.08 396.219C1247.4 392.747 1248.45 388.64 1248.45 384.2H1240.45C1240.45 387.36 1239.71 389.853 1238.42 391.781C1237.15 393.7 1235.15 395.325 1232.2 396.472L1235.1 403.928ZM1248.45 384.2V171H1240.45V384.2H1248.45ZM1244.45 167H1232.45V175H1244.45V167Z" fill="white" mask="url(#path-8-outside-1_0_1)"/>
<defs>
<filter id="filter0_d_0_1" x="563" y="140.199" width="196.723" height="249.053" filterUnits="userSpaceOnUse" color-interpolation-filters="sRGB">
<feFlood flood-opacity="0" result="BackgroundImageFix"/>
<feColorMatrix in="SourceAlpha" type="matrix" values="0 0 0 0 0 0 0 0 0 0 0 0 0 0 0 0 0 0 127 0" result="hardAlpha"/>
<feOffset dy="4"/>
<feGaussianBlur stdDeviation="2"/>
<feComposite in2="hardAlpha" operator="out"/>
<feColorMatrix type="matrix" values="0 0 0 0 0 0 0 0 0 0 0 0 0 0 0 0 0 0 0.25 0"/>
<feBlend mode="normal" in2="BackgroundImageFix" result="effect1_dropShadow_0_1"/>
<feBlend mode="normal" in="SourceGraphic" in2="effect1_dropShadow_0_1" result="shape"/>
</filter>
</defs>
</svg>
